<svg id="visual" viewBox="0 0 900 600" width="900" height="600" xmlns="http://www.w3.org/2000/svg" xmlns:xlink="http://www.w3.org/1999/xlink" version="1.1"><rect x="0" y="0" width="900" height="600" fill="#001220"></rect><defs><linearGradient id="grad1_0" x1="33.3%" y1="0%" x2="100%" y2="100%"><stop offset="20%" stop-color="#001220" stop-opacity="1"></stop><stop offset="80%" stop-color="#001220" stop-opacity="1"></stop></linearGradient></defs><defs><linearGradient id="grad2_0" x1="0%" y1="0%" x2="66.7%" y2="100%"><stop offset="20%" stop-color="#001220" stop-opacity="1"></stop><stop offset="80%" stop-color="#001220" stop-opacity="1"></stop></linearGradient></defs><g transform="translate(900, 0)"><path d="M0 270.4C-24 241.8 -48 213.1 -85 205.1C-122 197.1 -172 209.8 -191.2 191.2C-210.4 172.6 -198.9 122.8 -206.9 85.7C-215 48.6 -242.7 24.3 -270.4 0L0 0Z" fill="#0d6efd"></path></g><g transform="translate(0, 600)"><path d="M0 -270.4C28.9 -252.4 57.8 -234.4 93 -224.5C128.2 -214.6 169.8 -212.9 191.2 -191.2C212.6 -169.5 213.7 -127.8 223.6 -92.6C233.4 -57.4 251.9 -28.7 270.4 0L0 0Z" fill="#0d6efd"></path></g></svg>